<?xml version="1.0" encoding="UTF-8" standalone="no"?>
<!-- Created with Inkscape (http://www.inkscape.org/) -->

<svg
   width="255"
   height="255"
   viewBox="0 0 67.46875 67.468749"
   version="1.1"
   id="svg1"
   inkscape:version="1.4.2 (ebf0e94, 2025-05-08)"
   sodipodi:docname="dotbox_logo_only.svg"
   xmlns:inkscape="http://www.inkscape.org/namespaces/inkscape"
   xmlns:sodipodi="http://sodipodi.sourceforge.net/DTD/sodipodi-0.dtd"
   xmlns="http://www.w3.org/2000/svg"
   xmlns:svg="http://www.w3.org/2000/svg">
  <sodipodi:namedview
     id="namedview1"
     pagecolor="#ffffff"
     bordercolor="#000000"
     borderopacity="0.25"
     inkscape:showpageshadow="2"
     inkscape:pageopacity="0.0"
     inkscape:pagecheckerboard="0"
     inkscape:deskcolor="#d1d1d1"
     inkscape:document-units="mm"
     inkscape:zoom="0.71891835"
     inkscape:cx="396.42889"
     inkscape:cy="338.70328"
     inkscape:window-width="1920"
     inkscape:window-height="1009"
     inkscape:window-x="-8"
     inkscape:window-y="-8"
     inkscape:window-maximized="1"
     inkscape:current-layer="layer1" />
  <defs
     id="defs1" />
  <g
     inkscape:label="Lager 1"
     inkscape:groupmode="layer"
     id="layer1">
    <g
       id="g2"
       transform="matrix(0.11281078,0,0,0.11281078,-53.637548,-11.258243)">
      <path
         id="path2"
         style="fill:#f5bb11;fill-opacity:1"
         d="M -1.776378e-6,-4.6740159e-6 V 29.999996 H -42.000002 v 25 h -43.000001 v 26 H -128 V 108 h -40 v 28 h -37 v 25 h 37 v 17 h 40 v 23 h 42.999997 v 25 h 43.000001 v 25 h 41.0000002 v 30 H 27.999999 v -30 h 41 V 226 H 110 v -25 h 43 v -23 h 42 v -17 h 35 V 136 H 194 V 108 H 153 V 80.999996 h -44 v -26 H 68.999999 v -25 h -41 V -4.6740159e-6 Z"
         transform="translate(759,129)" />
      <path
         d="m 0,0 c 9.9,0 19.8,0 30,0 0,63 0,126.1 0,191 10.2,0 20.5,0 31,0 0,7.3 0,14.5 0,22 12.9,0 25.7,0 39,0 0,7.9 0,15.8 0,24 11.9,0 23.8,0 36,0 0.3,7.6 0.7,15.2 1,23 11.2,0 22.4,0 34,0 0,7.9 0,15.8 0,24 11.2,0 22.4,0 34,0 0,-53.5 0,-106.9 0,-162 10.2,0 20.5,0 31,0 0,53.5 0,106.9 0,162 10.9,0 21.8,0 33,0 0,-7.9 0,-15.8 0,-24 11.9,0 23.8,0 36,0 0.3,-7.6 0.7,-15.2 1,-23 11.5,0 23.1,0 35,0 0,-7.9 0,-15.8 0,-24 12.5,0 25.1,0 38,0 0,-7.3 0,-14.5 0,-22 10.6,0 21.1,0 32,0 0,-63 0,-126.1 0,-191 9.9,0 19.8,0 30,0 0,70.3 0,140.6 0,213 -9.9,0 -19.8,0 -30,0 0,7.9 0,15.8 0,24 -12.5,0 -25.1,0 -38,0 0,7.6 0,15.2 0,23 -11.9,0 -23.8,0 -36,0 0,7.9 0,15.8 0,24 -11.2,0 -22.4,0 -34,0 0,7.9 0,15.8 0,24 -11.2,0 -22.4,0 -34,0 0,7.9 0,15.8 0,24 -32,0 -64,0 -97,0 0,-7.9 0,-15.8 0,-24 -10.9,0 -21.8,0 -33,0 0,-7.9 0,-15.8 0,-24 -11.9,0 -23.8,0 -36,0 0,-7.9 0,-15.8 0,-24 -11.5,0 -23.1,0 -35,0 0,-7.6 0,-15.2 0,-23 -12.5,0 -25.1,0 -38,0 0,-7.9 0,-15.8 0,-24 -9.9,0 -19.8,0 -30,0 C 0,142.7 0,72.4 0,0 Z"
         fill="#feca32"
         transform="translate(552,320)"
         id="path3"
         style="fill:#f5bb11;fill-opacity:1" />
      <path
         d="m 0,0 c 11.2,0 22.4,0 34,0 0,13.5 0,27.1 0,41 C 22.8,41 11.6,41 0,41 0,27.5 0,13.9 0,0 Z"
         fill="#fec732"
         transform="translate(860,442)"
         id="path14"
         style="fill:#f5bb11;fill-opacity:1" />
      <path
         d="m 0,0 c 11.2,0 22.4,0 34,0 0,13.5 0,27.1 0,41 C 22.8,41 11.6,41 0,41 0,27.5 0,13.9 0,0 Z m 2,1 c 0,12.5 0,25.1 0,38 9.9,0 19.8,0 30,0 C 32,26.8 32,14.6 32,2 17.1,1.5 17.1,1.5 2,1 Z"
         fill="#eccc32"
         transform="translate(860,442)"
         id="path20"
         style="fill:#f5bb11;fill-opacity:1" />
    </g>
  </g>
</svg>
